<?xml version="1.0" standalone="no"?>
<!DOCTYPE svg PUBLIC "-//W3C//DTD SVG 20010904//EN"
 "http://www.w3.org/TR/2001/REC-SVG-20010904/DTD/svg10.dtd">
<svg version="1.0" xmlns="http://www.w3.org/2000/svg"
 width="700.000000pt" height="700.000000pt" viewBox="0 0 700.000000 700.000000"
 preserveAspectRatio="xMidYMid meet">
<metadata>
Created by potrace 1.14, written by Peter Selinger 2001-2017
</metadata>
<g transform="translate(0.000000,700.000000) scale(0.100000,-0.100000)"
fill="#000000" stroke="none">
<path d="M5405 5923 c-385 -113 -702 -207 -704 -209 -4 -3 32 -135 71 -261 10
-35 25 -63 32 -63 6 0 165 45 352 99 186 55 340 98 342 96 3 -3 -613 -831
-639 -859 -5 -5 -46 27 -97 75 -259 247 -552 402 -901 476 -116 25 -145 27
-356 28 -202 0 -244 -3 -344 -23 -737 -149 -1294 -706 -1443 -1442 -20 -100
-23 -144 -23 -340 0 -196 3 -240 23 -340 32 -156 91 -328 161 -468 l58 -116
-534 -712 -535 -713 107 -141 c88 -117 109 -140 120 -129 7 8 243 322 525 699
282 377 516 689 521 694 4 5 46 -26 95 -73 264 -250 573 -412 924 -483 101
-20 143 -23 345 -23 211 1 240 3 356 28 358 76 665 242 920 496 256 257 424
573 500 941 21 101 24 142 24 340 0 195 -3 240 -23 340 -32 156 -91 328 -161
468 l-58 116 361 480 361 481 3 -372 2 -373 170 0 170 0 0 745 c0 590 -3 745
-12 744 -7 -1 -328 -94 -713 -206z m-1585 -996 c190 -45 347 -114 513 -224 69
-46 297 -257 297 -274 0 -5 -198 -273 -440 -596 -242 -322 -440 -584 -440
-581 0 11 -360 1241 -364 1246 -3 2 -277 -359 -610 -803 l-606 -808 -19 46
c-29 67 -66 190 -87 287 -29 133 -27 440 4 579 62 275 187 512 372 705 215
224 465 365 756 425 143 30 142 30 339 26 149 -3 198 -8 285 -28z m1054 -928
c65 -181 81 -280 81 -499 0 -168 -3 -210 -23 -299 -66 -295 -190 -520 -401
-732 -212 -211 -437 -335 -732 -401 -139 -31 -446 -33 -579 -4 -290 63 -526
187 -732 384 -55 53 -104 104 -109 114 -8 14 68 121 431 604 242 323 440 584
440 581 0 -10 361 -1241 365 -1245 2 -2 275 358 607 801 332 443 607 802 611
798 4 -4 23 -50 41 -102z"/>
</g>
</svg>
