<svg xmlns="http://www.w3.org/2000/svg" version="1.1" xmlns:xlink="http://www.w3.org/1999/xlink" xmlns:svgjs="http://svgjs.com/svgjs" width="1000" height="1000"><rect width="1000" height="1000" rx="200" ry="200" fill="#72fa78"></rect><g transform="matrix(3.0022479331399388,0,0,3.0022479331399388,99.997992161073,100.04303555276704)"><svg xmlns="http://www.w3.org/2000/svg" version="1.1" xmlns:xlink="http://www.w3.org/1999/xlink" xmlns:svgjs="http://svgjs.com/svgjs" width="266.467" height="266.455"><svg xmlns="http://www.w3.org/2000/svg" xml:space="preserve" overflow="visible" viewBox="0 0 266.467 266.455">
  <path d="M133.25 47.469c-47.359 0-85.75 38.377-85.75 85.75 0 47.347 38.39 85.75 85.75 85.75 47.345 0 85.719-38.403 85.719-85.75 0-47.373-38.373-85.75-85.719-85.75zm0 15.593c38.739 0 70.125 31.405 70.125 70.157 0 38.725-31.387 70.156-70.125 70.156-38.753 0-70.156-31.431-70.156-70.156 0-38.753 31.404-70.156 70.156-70.156z" style="stroke:#000;stroke-width:.99999994"></path>
  <path stroke-miterlimit="500" d="M242.367 78.658h15.591V8.485l-67.353 19.658 4.362 14.959 34.925-10.179-84.809 113.089-17.456-59.888L8.511 244.947l9.748 12.998 103.125-137.5 17.469 59.861L242.367 42.269z" style="stroke:#000;stroke-width:.7087;stroke-linecap:round;stroke-linejoin:round;stroke-miterlimit:500"></path>
</svg></svg></g></svg>